<?xml version="1.0" standalone="no"?>
<!DOCTYPE svg PUBLIC "-//W3C//DTD SVG 20010904//EN"
 "http://www.w3.org/TR/2001/REC-SVG-20010904/DTD/svg10.dtd">
<svg version="1.0" xmlns="http://www.w3.org/2000/svg"
 width="278.000000pt" height="278.000000pt" viewBox="0 0 278.000000 278.000000"
 preserveAspectRatio="xMidYMid meet">
<metadata>
Created by potrace 1.11, written by Peter Selinger 2001-2013
</metadata>
<g transform="translate(0.000000,278.000000) scale(0.100000,-0.100000)"
fill="#000000" stroke="none">
<path d="M1171 2528 c-242 -49 -433 -150 -595 -312 -178 -178 -283 -379 -330
-631 -15 -80 -15 -310 -1 -385 46 -246 155 -452 330 -626 392 -389 1002 -443
1464 -130 252 170 442 470 488 771 9 61 10 283 1 345 -65 453 -413 842 -853
952 -115 29 -116 29 -270 33 -110 2 -160 -1 -234 -17z m179 -274 c0 -13 18
-52 30 -64 13 -13 40 -70 40 -84 0 -9 4 -16 9 -16 4 0 16 -20 25 -45 10 -25
22 -45 27 -45 6 0 8 -4 4 -9 -3 -5 -1 -12 5 -16 6 -4 8 -11 5 -16 -4 -5 -2 -9
4 -9 5 0 11 -6 13 -12 2 -7 30 -65 63 -128 32 -63 58 -118 57 -122 -1 -5 2 -8
8 -8 5 0 10 -7 10 -15 0 -8 5 -15 12 -15 6 0 9 -3 6 -6 -4 -3 11 -39 33 -80
22 -41 36 -74 32 -74 -5 0 0 -5 10 -11 9 -6 15 -14 12 -20 -4 -5 -1 -9 4 -9 6
0 11 -9 11 -20 0 -22 15 -27 27 -7 4 6 8 14 9 17 0 3 7 19 14 35 7 17 14 32
15 35 0 3 7 16 15 30 7 14 13 26 13 27 -4 10 11 43 19 43 5 0 7 4 3 9 -3 5 -1
12 5 16 6 4 8 10 5 15 -6 10 23 42 33 36 8 -4 87 -39 117 -51 11 -5 23 -7 28
-7 4 1 7 -3 7 -9 0 -22 -23 -89 -30 -89 -7 0 -18 -31 -26 -70 -2 -8 -8 -16
-14 -18 -5 -2 -8 -7 -5 -12 3 -5 -2 -16 -11 -24 -8 -9 -13 -16 -10 -16 4 0 -3
-18 -14 -40 -11 -21 -20 -46 -20 -54 0 -8 -5 -16 -10 -18 -6 -2 -12 -13 -13
-26 0 -12 -5 -22 -10 -22 -4 0 -5 -5 -2 -10 3 -5 2 -10 -2 -10 -5 0 -14 -14
-20 -31 -7 -17 -17 -28 -22 -24 -6 3 -11 2 -11 -3 0 -5 -27 -21 -60 -36 -32
-15 -62 -31 -65 -36 -9 -15 -25 -12 -25 4 0 7 -7 19 -15 26 -9 7 -13 15 -11
18 3 2 -6 21 -19 42 -13 21 -21 41 -18 44 4 3 1 6 -6 6 -7 0 -9 5 -6 10 3 6
-1 13 -9 16 -9 3 -14 10 -11 14 3 5 1 11 -5 15 -6 4 -8 11 -5 16 4 5 2 9 -2 9
-5 0 -15 16 -22 35 -7 19 -17 35 -22 35 -5 0 -9 6 -9 14 0 14 -40 97 -51 106
-4 3 -10 16 -14 30 -4 14 -18 41 -30 60 -11 19 -27 51 -35 70 -8 19 -16 37
-19 40 -15 13 -40 68 -34 74 3 3 1 6 -5 6 -7 0 -12 7 -12 15 0 8 -5 15 -11 15
-5 0 -8 4 -4 9 3 5 1 12 -5 16 -6 4 -8 11 -5 16 4 5 2 9 -4 9 -6 0 -13 11 -17
25 -3 14 -11 25 -17 25 -6 0 -8 3 -4 6 3 3 -5 23 -18 44 -13 21 -21 41 -18 44
4 3 1 6 -5 6 -6 0 -12 8 -14 18 -4 14 -11 10 -42 -22 -52 -54 -52 -52 64 -261
22 -38 49 -91 62 -117 13 -27 27 -48 31 -48 5 0 5 -4 2 -10 -3 -5 -2 -10 3
-10 5 0 12 -10 16 -22 7 -30 7 -30 28 -52 9 -10 15 -23 12 -27 -2 -4 4 -12 13
-18 10 -6 14 -11 10 -11 -9 0 42 -91 58 -102 5 -4 7 -8 3 -8 -4 0 13 -38 37
-85 25 -47 42 -85 40 -85 -3 0 0 -10 7 -22 7 -13 11 -27 10 -32 -2 -4 1 -13 6
-20 4 -6 7 -21 6 -33 0 -13 2 -23 6 -23 11 0 8 -34 -4 -49 -8 -11 -8 -13 1 -8
8 5 10 -7 7 -45 -3 -29 -5 -63 -6 -75 -1 -13 -6 -23 -11 -23 -4 0 -6 -4 -2 -9
3 -5 1 -12 -5 -16 -6 -4 -8 -11 -5 -16 4 -5 1 -9 -4 -9 -6 0 -11 -3 -10 -7 2
-16 -14 -53 -22 -53 -5 0 -9 -5 -9 -12 0 -18 -110 -118 -137 -124 -13 -4 -23
-10 -23 -15 0 -5 -3 -8 -7 -7 -5 1 -18 -3 -30 -10 -13 -7 -23 -10 -23 -8 0 3
-17 -1 -39 -8 -35 -13 -59 -13 -233 -5 -16 1 -28 6 -28 11 0 5 -5 6 -10 3 -6
-3 -10 -1 -10 6 0 7 -3 10 -6 6 -4 -3 -19 0 -34 8 -15 8 -30 11 -34 8 -3 -4
-6 -1 -6 5 0 7 -7 12 -15 12 -8 0 -15 5 -15 10 0 6 -5 10 -11 10 -32 0 -147
155 -139 186 1 4 -4 10 -12 15 -17 11 -22 269 -5 269 5 0 7 3 4 6 -17 17 107
193 136 194 5 0 15 6 23 14 7 8 35 22 61 32 27 10 50 20 53 23 3 4 19 6 35 5
17 0 36 4 43 9 8 6 12 5 12 -2 0 -8 5 -9 19 -1 12 6 22 6 25 1 4 -5 14 -8 24
-6 9 1 26 -2 37 -8 23 -12 65 -16 65 -6 0 3 -9 18 -20 31 -10 14 -16 28 -13
32 3 3 2 6 -4 6 -5 0 -18 18 -29 40 -10 22 -23 40 -27 40 -5 0 -5 5 -2 10 3 6
1 10 -6 10 -7 0 -10 3 -6 6 3 3 -3 16 -14 27 -10 11 -24 36 -31 54 -7 18 -16
33 -20 33 -4 0 -8 7 -8 15 0 8 -4 15 -10 15 -5 0 -10 6 -10 13 0 8 -9 24 -20
37 -11 13 -20 29 -20 37 0 7 -6 16 -13 19 -7 2 -14 14 -14 26 -1 12 -7 24 -13
28 -7 4 -11 9 -10 11 1 2 -3 24 -10 49 -21 74 -14 132 22 183 34 49 69 80 113
102 22 11 43 25 47 30 5 7 8 7 8 0 0 -5 7 -2 14 8 8 10 18 18 23 19 14 0 112
49 118 59 4 5 10 7 15 4 5 -3 11 -1 15 5 8 13 25 3 25 -16z"/>
<path d="M1156 1172 c-4 -7 -12 -10 -17 -6 -6 3 -31 1 -57 -6 -88 -21 -167
-119 -167 -208 0 -23 -3 -42 -7 -42 -4 0 -3 -11 2 -24 5 -13 6 -27 3 -30 -4
-3 0 -6 8 -6 11 0 11 -2 -1 -10 -9 -6 -10 -10 -3 -10 6 0 15 -9 18 -21 10 -31
62 -86 98 -104 50 -25 135 -37 155 -22 7 6 15 7 19 4 3 -3 18 0 34 9 16 8 29
12 29 9 0 -3 20 15 45 40 27 28 50 63 57 88 7 23 17 45 23 49 6 5 6 8 0 8 -6
0 -9 24 -8 55 1 32 -2 53 -7 50 -5 -3 -7 4 -5 15 2 11 -1 20 -6 20 -6 0 -7 5
-4 10 3 6 1 10 -5 10 -6 0 -8 5 -5 10 3 6 2 10 -4 10 -5 0 -13 9 -16 20 -4 11
-11 18 -16 15 -5 -4 -12 1 -15 9 -6 17 -110 59 -124 51 -5 -3 -10 0 -12 7 -3
9 -6 9 -12 0z"/>
</g>
</svg>
